/videos/06ccc14f-364b-486a-efd6-3e23ae7f8f68/hls1/main/0.ts

{"Protocol":0,"Id":"06ccc14f364b486aefd63e23ae7f8f68","Path":"/data/movies/Star Wars Episode I - The Phantom Menace (1999)/Star Wars Episode I - The Phantom Menace (1999) WEBDL-2160p.mkv","EncoderPath":null,"EncoderProtocol":null,"Type":0,"Container":"mkv,webm","Size":18242758270,"Name":"Star Wars Episode I - The Phantom Menace (1999) WEBDL-2160p","IsRemote":false,"ETag":"19b04995c68b7766bf55f16ad84a4896","RunTimeTicks":81729150000,"ReadAtNativeFramerate":false,"IgnoreDts":false,"IgnoreIndex":false,"GenPtsInput":false,"SupportsTranscoding":true,"SupportsDirectStream":true,"SupportsDirectPlay":true,"IsInfiniteStream":false,"RequiresOpening":false,"OpenToken":null,"RequiresClosing":false,"LiveStreamId":null,"BufferMs":null,"RequiresLooping":false,"SupportsProbing":true,"VideoType":0,"IsoType":null,"Video3DFormat":null,"MediaStreams":[{"Codec":"hevc","CodecTag":null,"Language":null,"ColorRange":null,"ColorSpace":"bt2020nc","ColorTransfer":"smpte2084","ColorPrimaries":"bt2020","DvVersionMajor":null,"DvVersionMinor":null,"DvProfile":null,"DvLevel":null,"RpuPresentFlag":null,"ElPresentFlag":null,"BlPresentFlag":null,"DvBlSignalCompatibilityId":null,"Comment":null,"TimeBase":"1/1000","CodecTimeBase":null,"Title":null,"VideoRange":"HDR","VideoRangeType":"HDR10","VideoDoViTitle":null,"LocalizedUndefined":null,"LocalizedDefault":null,"LocalizedForced":null,"LocalizedExternal":null,"DisplayTitle":"4K HEVC HDR","NalLengthSize":null,"IsInterlaced":false,"IsAVC":null,"ChannelLayout":null,"BitRate":17856794,"BitDepth":10,"RefFrames":1,"PacketLength":null,"Channels":null,"SampleRate":null,"IsDefault":true,"IsForced":false,"Height":1608,"Width":3840,"AverageFrameRate":23.976025,"RealFrameRate":23.976025,"Profile":"Main 10","Type":1,"AspectRatio":"2.40:1","Index":0,"Score":null,"IsExternal":false,"DeliveryMethod":null,"DeliveryUrl":null,"IsExternalUrl":null,"IsTextSubtitleStream":false,"SupportsExternalStream":false,"Path":null,"PixelFormat":"yuv420p10le","Level":150,"IsAnamorphic":null},{"Codec":"ac3","CodecTag":null,"Language":"ita","ColorRange":null,"ColorSpace":null,"ColorTransfer":null,"ColorPrimaries":null,"DvVersionMajor":null,"DvVersionMinor":null,"DvProfile":null,"DvLevel":null,"RpuPresentFlag":null,"ElPresentFlag":null,"BlPresentFlag":null,"DvBlSignalCompatibilityId":null,"Comment":null,"TimeBase":"1/1000","CodecTimeBase":null,"Title":null,"VideoRange":null,"VideoRangeType":null,"VideoDoViTitle":null,"LocalizedUndefined":null,"LocalizedDefault":null,"LocalizedForced":null,"LocalizedExternal":null,"DisplayTitle":"Italian - Dolby Digital - 5.1 - Default","NalLengthSize":null,"IsInterlaced":false,"IsAVC":null,"ChannelLayout":"5.1","BitRate":448000,"BitDepth":null,"RefFrames":null,"PacketLength":null,"Channels":6,"SampleRate":48000,"IsDefault":true,"IsForced":false,"Height":null,"Width":null,"AverageFrameRate":null,"RealFrameRate":null,"Profile":null,"Type":0,"AspectRatio":null,"Index":1,"Score":null,"IsExternal":false,"DeliveryMethod":null,"DeliveryUrl":null,"IsExternalUrl":null,"IsTextSubtitleStream":false,"SupportsExternalStream":false,"Path":null,"PixelFormat":null,"Level":0,"IsAnamorphic":null},{"Codec":"ass","CodecTag":null,"Language":"eng","ColorRange":null,"ColorSpace":null,"ColorTransfer":null,"ColorPrimaries":null,"DvVersionMajor":null,"DvVersionMinor":null,"DvProfile":null,"DvLevel":null,"RpuPresentFlag":null,"ElPresentFlag":null,"BlPresentFlag":null,"DvBlSignalCompatibilityId":null,"Comment":null,"TimeBase":"1/1000","CodecTimeBase":null,"Title":"Forced","VideoRange":null,"VideoRangeType":null,"VideoDoViTitle":null,"LocalizedUndefined":"Undefined","LocalizedDefault":"Default","LocalizedForced":"Forced","LocalizedExternal":"External","DisplayTitle":"Forced - English - ASS","NalLengthSize":null,"IsInterlaced":false,"IsAVC":null,"ChannelLayout":null,"BitRate":null,"BitDepth":null,"RefFrames":null,"PacketLength":null,"Channels":null,"SampleRate":null,"IsDefault":false,"IsForced":false,"Height":null,"Width":null,"AverageFrameRate":null,"RealFrameRate":null,"Profile":null,"Type":2,"AspectRatio":null,"Index":2,"Score":null,"IsExternal":false,"DeliveryMethod":null,"DeliveryUrl":null,"IsExternalUrl":null,"IsTextSubtitleStream":true,"SupportsExternalStream":true,"Path":null,"PixelFormat":null,"Level":0,"IsAnamorphic":null},{"Codec":"ass","CodecTag":null,"Language":"ita","ColorRange":null,"ColorSpace":null,"ColorTransfer":null,"ColorPrimaries":null,"DvVersionMajor":null,"DvVersionMinor":null,"DvProfile":null,"DvLevel":null,"RpuPresentFlag":null,"ElPresentFlag":null,"BlPresentFlag":null,"DvBlSignalCompatibilityId":null,"Comment":null,"TimeBase":"1/1000","CodecTimeBase":null,"Title":null,"VideoRange":null,"VideoRangeType":null,"VideoDoViTitle":null,"LocalizedUndefined":"Undefined","LocalizedDefault":"Default","LocalizedForced":"Forced","LocalizedExternal":"External","DisplayTitle":"Italian - ASS","NalLengthSize":null,"IsInterlaced":false,"IsAVC":null,"ChannelLayout":null,"BitRate":null,"BitDepth":null,"RefFrames":null,"PacketLength":null,"Channels":null,"SampleRate":null,"IsDefault":false,"IsForced":false,"Height":null,"Width":null,"AverageFrameRate":null,"RealFrameRate":null,"Profile":null,"Type":2,"AspectRatio":null,"Index":3,"Score":null,"IsExternal":false,"DeliveryMethod":null,"DeliveryUrl":null,"IsExternalUrl":null,"IsTextSubtitleStream":true,"SupportsExternalStream":true,"Path":null,"PixelFormat":null,"Level":0,"IsAnamorphic":null},{"Codec":"ass","CodecTag":null,"Language":"eng","ColorRange":null,"ColorSpace":null,"ColorTransfer":null,"ColorPrimaries":null,"DvVersionMajor":null,"DvVersionMinor":null,"DvProfile":null,"DvLevel":null,"RpuPresentFlag":null,"ElPresentFlag":null,"BlPresentFlag":null,"DvBlSignalCompatibilityId":null,"Comment":null,"TimeBase":"1/1000","CodecTimeBase":null,"Title":null,"VideoRange":null,"VideoRangeType":null,"VideoDoViTitle":null,"LocalizedUndefined":"Undefined","LocalizedDefault":"Default","LocalizedForced":"Forced","LocalizedExternal":"External","DisplayTitle":"English - ASS","NalLengthSize":null,"IsInterlaced":false,"IsAVC":null,"ChannelLayout":null,"BitRate":null,"BitDepth":null,"RefFrames":null,"PacketLength":null,"Channels":null,"SampleRate":null,"IsDefault":false,"IsForced":false,"Height":null,"Width":null,"AverageFrameRate":null,"RealFrameRate":null,"Profile":null,"Type":2,"AspectRatio":null,"Index":4,"Score":null,"IsExternal":false,"DeliveryMethod":null,"DeliveryUrl":null,"IsExternalUrl":null,"IsTextSubtitleStream":true,"SupportsExternalStream":true,"Path":null,"PixelFormat":null,"Level":0,"IsAnamorphic":null},{"Codec":"subrip","CodecTag":null,"Language":"ita","ColorRange":null,"ColorSpace":null,"ColorTransfer":null,"ColorPrimaries":null,"DvVersionMajor":null,"DvVersionMinor":null,"DvProfile":null,"DvLevel":null,"RpuPresentFlag":null,"ElPresentFlag":null,"BlPresentFlag":null,"DvBlSignalCompatibilityId":null,"Comment":null,"TimeBase":"1/1000","CodecTimeBase":null,"Title":"Forced","VideoRange":null,"VideoRangeType":null,"VideoDoViTitle":null,"LocalizedUndefined":"Undefined","LocalizedDefault":"Default","LocalizedForced":"Forced","LocalizedExternal":"External","DisplayTitle":"Forced - Italian - Default - SUBRIP","NalLengthSize":null,"IsInterlaced":false,"IsAVC":null,"ChannelLayout":null,"BitRate":null,"BitDepth":null,"RefFrames":null,"PacketLength":null,"Channels":null,"SampleRate":null,"IsDefault":true,"IsForced":false,"Height":null,"Width":null,"AverageFrameRate":null,"RealFrameRate":null,"Profile":null,"Type":2,"AspectRatio":null,"Index":5,"Score":null,"IsExternal":false,"DeliveryMethod":null,"DeliveryUrl":null,"IsExternalUrl":null,"IsTextSubtitleStream":true,"SupportsExternalStream":true,"Path":null,"PixelFormat":null,"Level":0,"IsAnamorphic":null},{"Codec":"eac3","CodecTag":null,"Language":"eng","ColorRange":null,"ColorSpace":null,"ColorTransfer":null,"ColorPrimaries":null,"DvVersionMajor":null,"DvVersionMinor":null,"DvProfile":null,"DvLevel":null,"RpuPresentFlag":null,"ElPresentFlag":null,"BlPresentFlag":null,"DvBlSignalCompatibilityId":null,"Comment":null,"TimeBase":"1/1000","CodecTimeBase":null,"Title":null,"VideoRange":null,"VideoRangeType":null,"VideoDoViTitle":null,"LocalizedUndefined":null,"LocalizedDefault":null,"LocalizedForced":null,"LocalizedExternal":null,"DisplayTitle":"English - Dolby Digital\u002B - 5.1","NalLengthSize":null,"IsInterlaced":false,"IsAVC":null,"ChannelLayout":"5.1","BitRate":320000,"BitDepth":null,"RefFrames":null,"PacketLength":null,"Channels":6,"SampleRate":48000,"IsDefault":false,"IsForced":false,"Height":null,"Width":null,"AverageFrameRate":null,"RealFrameRate":null,"Profile":null,"Type":0,"AspectRatio":null,"Index":6,"Score":null,"IsExternal":false,"DeliveryMethod":null,"DeliveryUrl":null,"IsExternalUrl":null,"IsTextSubtitleStream":false,"SupportsExternalStream":false,"Path":null,"PixelFormat":null,"Level":0,"IsAnamorphic":null}],"MediaAttachments":[],"Formats":[],"Bitrate":18624794,"Timestamp":null,"RequiredHttpHeaders":{},"TranscodingUrl":null,"TranscodingSubProtocol":null,"TranscodingContainer":null,"AnalyzeDurationMs":null,"DefaultAudioStreamIndex":null,"DefaultSubtitleStreamIndex":null}

/usr/lib/jellyfin-ffmpeg/ffmpeg -analyzeduration 200M -fflags +genpts -f matroska,webm  -i file:"/data/movies/Star Wars Episode I - The Phantom Menace (1999)/Star Wars Episode I - The Phantom Menace (1999) WEBDL-2160p.mkv" -map_metadata -1 -map_chapters -1 -threads 0 -map 0:0 -map 0:1 -codec:v:0 copy -tag:v:0 hvc1 -bsf:v hevc_mp4toannexb -start_at_zero -codec:a:0 copy -copyts -avoid_negative_ts disabled -max_muxing_queue_size 2048 -f hls -max_delay 5000000 -hls_time 6 -hls_segment_type mpegts -start_number 0 -hls_segment_filename "/config/data/transcodes/fc3db1e2d3a5a0c566fa9a705c2f64b0%d.ts" -hls_playlist_type vod -hls_list_size 0 -y "/config/data/transcodes/fc3db1e2d3a5a0c566fa9a705c2f64b0.m3u8"


ffmpeg version 5.1.3-Jellyfin Copyright (c) 2000-2022 the FFmpeg developers
  built with gcc 11 (Ubuntu 11.3.0-1ubuntu1~22.04.1)
  configuration: --prefix=/usr/lib/jellyfin-ffmpeg --target-os=linux --extra-libs=-lfftw3f --extra-version=Jellyfin --disable-doc --disable-ffplay --disable-ptx-compression --disable-static --disable-libxcb --disable-sdl2 --disable-xlib --enable-lto --enable-gpl --enable-version3 --enable-shared --enable-gmp --enable-gnutls --enable-chromaprint --enable-libdrm --enable-libass --enable-libfreetype --enable-libfribidi --enable-libfontconfig --enable-libbluray --enable-libmp3lame --enable-libopus --enable-libtheora --enable-libvorbis --enable-libopenmpt --enable-libdav1d --enable-libwebp --enable-libvpx --enable-libx264 --enable-libx265 --enable-libzvbi --enable-libzimg --enable-libfdk-aac --arch=amd64 --enable-libsvtav1 --enable-libshaderc --enable-libplacebo --enable-vulkan --enable-opencl --enable-vaapi --enable-amf --enable-libmfx --enable-ffnvcodec --enable-cuda --enable-cuda-llvm --enable-cuvid --enable-nvdec --enable-nvenc
  libavutil      57. 28.100 / 57. 28.100
  libavcodec     59. 37.100 / 59. 37.100
  libavformat    59. 27.100 / 59. 27.100
  libavdevice    59.  7.100 / 59.  7.100
  libavfilter     8. 44.100 /  8. 44.100
  libswscale      6.  7.100 /  6.  7.100
  libswresample   4.  7.100 /  4.  7.100
  libpostproc    56.  6.100 / 56.  6.100
Input #0, matroska,webm, from 'file:/data/movies/Star Wars Episode I - The Phantom Menace (1999)/Star Wars Episode I - The Phantom Menace (1999) WEBDL-2160p.mkv':
  Metadata:
    title           : Star.Wars.Episode.I.The.Phantom.Menace 4K
    encoder         : libebml v1.3.9 + libmatroska v1.5.2
    creation_time   : 2019-12-18T13:03:34.000000Z
  Duration: 02:16:12.92, start: 0.000000, bitrate: 17856 kb/s
  Stream #0:0: Video: hevc (Main 10), yuv420p10le(tv, bt2020nc/bt2020/smpte2084), 3840x1608, SAR 1:1 DAR 160:67, 23.98 fps, 23.98 tbr, 1k tbn (default)
    Metadata:
      BPS-eng         : 17086394
      DURATION-eng    : 02:16:12.915000000
      NUMBER_OF_FRAMES-eng: 195954
      NUMBER_OF_BYTES-eng: 17455706157
      _STATISTICS_WRITING_APP-eng: mkvmerge v40.0.0 ('Old Town Road + Pony') 32-bit
      _STATISTICS_WRITING_DATE_UTC-eng: 2019-12-18 13:03:34
      _STATISTICS_TAGS-eng: BPS DURATION NUMBER_OF_FRAMES NUMBER_OF_BYTES
  Stream #0:1(ita): Audio: ac3, 48000 Hz, 5.1(side), fltp, 448 kb/s (default)
    Metadata:
      BPS-eng         : 448000
      DURATION-eng    : 02:16:10.944000000
      NUMBER_OF_FRAMES-eng: 255342
      NUMBER_OF_BYTES-eng: 457572864
      _STATISTICS_WRITING_APP-eng: mkvmerge v40.0.0 ('Old Town Road + Pony') 32-bit
      _STATISTICS_WRITING_DATE_UTC-eng: 2019-12-18 13:03:34
      _STATISTICS_TAGS-eng: BPS DURATION NUMBER_OF_FRAMES NUMBER_OF_BYTES
  Stream #0:2(eng): Subtitle: ass
    Metadata:
      title           : Forced
      BPS-eng         : 1
      DURATION-eng    : 01:44:26.280000000
      NUMBER_OF_FRAMES-eng: 29
      NUMBER_OF_BYTES-eng: 1409
      _STATISTICS_WRITING_APP-eng: mkvmerge v40.0.0 ('Old Town Road + Pony') 32-bit
      _STATISTICS_WRITING_DATE_UTC-eng: 2019-12-18 13:03:34
      _STATISTICS_TAGS-eng: BPS DURATION NUMBER_OF_FRAMES NUMBER_OF_BYTES
  Stream #0:3(ita): Subtitle: ass
    Metadata:
      BPS-eng         : 81
      DURATION-eng    : 02:14:09.480000000
      NUMBER_OF_FRAMES-eng: 1436
      NUMBER_OF_BYTES-eng: 81936
      _STATISTICS_WRITING_APP-eng: mkvmerge v40.0.0 ('Old Town Road + Pony') 32-bit
      _STATISTICS_WRITING_DATE_UTC-eng: 2019-12-18 13:03:34
      _STATISTICS_TAGS-eng: BPS DURATION NUMBER_OF_FRAMES NUMBER_OF_BYTES
  Stream #0:4(eng): Subtitle: ass
    Metadata:
      BPS-eng         : 81
      DURATION-eng    : 02:14:09.480000000
      NUMBER_OF_FRAMES-eng: 1437
      NUMBER_OF_BYTES-eng: 81644
      _STATISTICS_WRITING_APP-eng: mkvmerge v40.0.0 ('Old Town Road + Pony') 32-bit
      _STATISTICS_WRITING_DATE_UTC-eng: 2019-12-18 13:03:34
      _STATISTICS_TAGS-eng: BPS DURATION NUMBER_OF_FRAMES NUMBER_OF_BYTES
  Stream #0:5(ita): Subtitle: subrip (default)
    Metadata:
      title           : Forced
      BPS-eng         : 3
      DURATION-eng    : 00:58:27.800000000
      NUMBER_OF_FRAMES-eng: 43
      NUMBER_OF_BYTES-eng: 1541
      _STATISTICS_WRITING_APP-eng: mkvmerge v40.0.0 ('Old Town Road + Pony') 32-bit
      _STATISTICS_WRITING_DATE_UTC-eng: 2019-12-18 13:03:34
      _STATISTICS_TAGS-eng: BPS DURATION NUMBER_OF_FRAMES NUMBER_OF_BYTES
  Stream #0:6(eng): Audio: eac3, 48000 Hz, 5.1(side), fltp, 320 kb/s
    Metadata:
      BPS-eng         : 320000
      DURATION-eng    : 02:16:10.944000000
      NUMBER_OF_FRAMES-eng: 255342
      NUMBER_OF_BYTES-eng: 326837760
      _STATISTICS_WRITING_APP-eng: mkvmerge v40.0.0 ('Old Town Road + Pony') 32-bit
      _STATISTICS_WRITING_DATE_UTC-eng: 2019-12-18 13:03:34
      _STATISTICS_TAGS-eng: BPS DURATION NUMBER_OF_FRAMES NUMBER_OF_BYTES
Output #0, hls, to '/config/data/transcodes/fc3db1e2d3a5a0c566fa9a705c2f64b0.m3u8':
  Metadata:
    encoder         : Lavf59.27.100
  Stream #0:0: Video: hevc (Main 10) (hvc1 / 0x31637668), yuv420p10le(tv, bt2020nc/bt2020/smpte2084), 3840x1608 [SAR 1:1 DAR 160:67], q=2-31, 23.98 fps, 23.98 tbr, 90k tbn (default)
  Stream #0:1: Audio: ac3, 48000 Hz, 5.1(side), fltp, 448 kb/s (default)
Stream mapping:
  Stream #0:0 -> #0:0 (copy)
  Stream #0:1 -> #0:1 (copy)
Press [q] to stop, [?] for help
frame=    1 fps=0.0 q=-1.0 size=N/A time=00:00:00.00 bitrate=N/A speed=N/A    
[hls @ 0x55a5039d57c0] Opening '/config/data/transcodes/fc3db1e2d3a5a0c566fa9a705c2f64b00.ts' for writing
frame=  311 fps=0.0 q=-1.0 size=N/A time=00:00:00.30 bitrate=N/A speed=0.552x    
[hls @ 0x55a5039d57c0] Opening '/config/data/transcodes/fc3db1e2d3a5a0c566fa9a705c2f64b01.ts' for writing
frame=  723 fps=680 q=-1.0 size=N/A time=00:00:17.29 bitrate=N/A speed=16.3x    
[hls @ 0x55a5039d57c0] Opening '/config/data/transcodes/fc3db1e2d3a5a0c566fa9a705c2f64b02.ts' for writing
frame=  940 fps=580 q=-1.0 size=N/A time=00:00:26.80 bitrate=N/A speed=16.5x    
[hls @ 0x55a5039d57c0] Opening '/config/data/transcodes/fc3db1e2d3a5a0c566fa9a705c2f64b03.ts' for writing
frame= 1182 fps=549 q=-1.0 size=N/A time=00:00:36.56 bitrate=N/A speed=  17x    
[hls @ 0x55a5039d57c0] Opening '/config/data/transcodes/fc3db1e2d3a5a0c566fa9a705c2f64b04.ts' for writing
frame= 1341 fps=502 q=-1.0 size=N/A time=00:00:43.34 bitrate=N/A speed=16.2x    
[hls @ 0x55a5039d57c0] Opening '/config/data/transcodes/fc3db1e2d3a5a0c566fa9a705c2f64b05.ts' for writing
frame= 1487 fps=468 q=-1.0 size=N/A time=00:00:49.10 bitrate=N/A speed=15.5x    
frame= 1610 fps=437 q=-1.0 size=N/A time=00:00:54.57 bitrate=N/A speed=14.8x    
[hls @ 0x55a5039d57c0] Opening '/config/data/transcodes/fc3db1e2d3a5a0c566fa9a705c2f64b06.ts' for writing
frame= 1730 fps=411 q=-1.0 size=N/A time=00:00:59.53 bitrate=N/A speed=14.2x    
frame= 1776 fps=375 q=-1.0 size=N/A time=00:01:01.39 bitrate=N/A speed=  13x    
frame= 1845 fps=338 q=-1.0 size=N/A time=00:01:04.11 bitrate=N/A speed=11.8x    
frame= 1927 fps=322 q=-1.0 size=N/A time=00:01:07.50 bitrate=N/A speed=11.3x    
[hls @ 0x55a5039d57c0] Opening '/config/data/transcodes/fc3db1e2d3a5a0c566fa9a705c2f64b07.ts' for writing
frame= 2004 fps=308 q=-1.0 size=N/A time=00:01:11.12 bitrate=N/A speed=10.9x    
frame= 2049 fps=291 q=-1.0 size=N/A time=00:01:12.69 bitrate=N/A speed=10.3x    
frame= 2172 fps=285 q=-1.0 size=N/A time=00:01:18.13 bitrate=N/A speed=10.3x    
[hls @ 0x55a5039d57c0] Opening '/config/data/transcodes/fc3db1e2d3a5a0c566fa9a705c2f64b08.ts' for writing
frame= 2306 fps=282 q=-1.0 size=N/A time=00:01:23.66 bitrate=N/A speed=10.2x    
frame= 2383 fps=273 q=-1.0 size=N/A time=00:01:26.70 bitrate=N/A speed=9.95x    
[hls @ 0x55a5039d57c0] Opening '/config/data/transcodes/fc3db1e2d3a5a0c566fa9a705c2f64b09.ts' for writing
frame= 2624 fps=284 q=-1.0 size=N/A time=00:01:36.59 bitrate=N/A speed=10.5x    
[hls @ 0x55a5039d57c0] Opening '/config/data/transcodes/fc3db1e2d3a5a0c566fa9a705c2f64b010.ts' for writing
frame= 2740 fps=281 q=-1.0 size=N/A time=00:01:41.61 bitrate=N/A speed=10.4x    
[hls @ 0x55a5039d57c0] Opening '/config/data/transcodes/fc3db1e2d3a5a0c566fa9a705c2f64b011.ts' for writing
frame= 2807 fps=273 q=-1.0 size=N/A time=00:01:44.33 bitrate=N/A speed=10.2x    
[hls @ 0x55a5039d57c0] Opening '/config/data/transcodes/fc3db1e2d3a5a0c566fa9a705c2f64b012.ts' for writing
frame= 2884 fps=266 q=-1.0 size=N/A time=00:01:47.41 bitrate=N/A speed=9.91x    
[hls @ 0x55a5039d57c0] Opening '/config/data/transcodes/fc3db1e2d3a5a0c566fa9a705c2f64b013.ts' for writing
frame= 2961 fps=256 q=-1.0 size=N/A time=00:01:50.77 bitrate=N/A speed=9.58x    
[hls @ 0x55a5039d57c0] Opening '/config/data/transcodes/fc3db1e2d3a5a0c566fa9a705c2f64b014.ts' for writing
frame= 3031 fps=251 q=-1.0 size=N/A time=00:01:53.81 bitrate=N/A speed=9.41x    
[hls @ 0x55a5039d57c0] Opening '/config/data/transcodes/fc3db1e2d3a5a0c566fa9a705c2f64b015.ts' for writing
frame= 3086 fps=244 q=-1.0 size=N/A time=00:01:55.79 bitrate=N/A speed=9.14x    
frame= 3110 fps=236 q=-1.0 size=N/A time=00:01:56.85 bitrate=N/A speed=8.87x    
frame= 3132 fps=229 q=-1.0 size=N/A time=00:01:57.77 bitrate=N/A speed=8.61x    
frame= 3135 fps=221 q=-1.0 size=N/A time=00:01:58.09 bitrate=N/A speed=8.33x    
frame= 3138 fps=214 q=-1.0 size=N/A time=00:01:58.09 bitrate=N/A speed=8.04x    
frame= 3140 fps=207 q=-1.0 size=N/A time=00:01:58.09 bitrate=N/A speed=7.77x    
frame= 3144 fps=199 q=-1.0 size=N/A time=00:01:58.38 bitrate=N/A speed=7.49x    
frame= 3148 fps=192 q=-1.0 size=N/A time=00:01:58.41 bitrate=N/A speed=7.22x    
frame= 3151 fps=186 q=-1.0 size=N/A time=00:01:58.73 bitrate=N/A speed=7.03x    
frame= 3159 fps=181 q=-1.0 size=N/A time=00:01:59.05 bitrate=N/A speed=6.84x    
frame= 3163 fps=176 q=-1.0 size=N/A time=00:01:59.05 bitrate=N/A speed=6.61x    
frame= 3171 fps=171 q=-1.0 size=N/A time=00:01:59.41 bitrate=N/A speed=6.45x    
frame= 3175 fps=164 q=-1.0 size=N/A time=00:01:59.76 bitrate=N/A speed=6.17x    
frame= 3177 fps=159 q=-1.0 size=N/A time=00:01:59.76 bitrate=N/A speed=6.01x    
frame= 3184 fps=140 q=-1.0 size=N/A time=00:02:00.11 bitrate=N/A speed=5.28x    
frame= 3191 fps=136 q=-1.0 size=N/A time=00:02:00.43 bitrate=N/A speed=5.14x    
frame= 3212 fps=134 q=-1.0 size=N/A time=00:02:01.10 bitrate=N/A speed=5.06x    
frame= 3223 fps=132 q=-1.0 size=N/A time=00:02:01.77 bitrate=N/A speed=4.98x    
frame= 3233 fps=130 q=-1.0 size=N/A time=00:02:02.09 bitrate=N/A speed= 4.9x    
frame= 3243 fps=127 q=-1.0 size=N/A time=00:02:02.38 bitrate=N/A speed=4.81x    
frame= 3252 fps=125 q=-1.0 size=N/A time=00:02:02.73 bitrate=N/A speed=4.73x    
frame= 3259 fps=122 q=-1.0 size=N/A time=00:02:03.05 bitrate=N/A speed=4.62x    
frame= 3263 fps=120 q=-1.0 size=N/A time=00:02:03.34 bitrate=N/A speed=4.54x    
[hls @ 0x55a5039d57c0] Opening '/config/data/transcodes/fc3db1e2d3a5a0c566fa9a705c2f64b016.ts' for writing
frame= 3268 fps= 95 q=-1.0 size=N/A time=00:02:03.44 bitrate=N/A speed= 3.6x    
[hls @ 0x55a5039d57c0] Opening '/config/data/transcodes/fc3db1e2d3a5a0c566fa9a705c2f64b017.ts' for writing
frame= 3456 fps= 99 q=-1.0 size=N/A time=00:02:11.41 bitrate=N/A speed=3.77x    
frame= 3480 fps= 98 q=-1.0 size=N/A time=00:02:12.59 bitrate=N/A speed=3.75x    
frame= 3516 fps= 98 q=-1.0 size=N/A time=00:02:13.90 bitrate=N/A speed=3.73x    
frame= 3519 fps= 93 q=-1.0 size=N/A time=00:02:14.03 bitrate=N/A speed=3.54x    
frame= 3534 fps= 92 q=-1.0 size=N/A time=00:02:14.67 bitrate=N/A speed=3.51x    
frame= 3544 fps= 91 q=-1.0 size=N/A time=00:02:15.18 bitrate=N/A speed=3.48x    
frame= 3559 fps= 90 q=-1.0 size=N/A time=00:02:15.79 bitrate=N/A speed=3.45x    
frame= 3569 fps= 89 q=-1.0 size=N/A time=00:02:15.95 bitrate=N/A speed= 3.4x    
frame= 3596 fps= 89 q=-1.0 size=N/A time=00:02:17.23 bitrate=N/A speed=3.39x    
frame= 3615 fps= 88 q=-1.0 size=N/A time=00:02:17.90 bitrate=N/A speed=3.36x    
[hls @ 0x55a5039d57c0] Opening '/config/data/transcodes/fc3db1e2d3a5a0c566fa9a705c2f64b018.ts' for writing
frame= 3618 fps= 80 q=-1.0 size=N/A time=00:02:18.00 bitrate=N/A speed=3.04x    
frame= 3813 fps= 83 q=-1.0 size=N/A time=00:02:26.29 bitrate=N/A speed=3.18x    
frame= 3828 fps= 80 q=-1.0 size=N/A time=00:02:26.86 bitrate=N/A speed=3.08x    
[hls @ 0x55a5039d57c0] Opening '/config/data/transcodes/fc3db1e2d3a5a0c566fa9a705c2f64b019.ts' for writing
frame= 3856 fps= 77 q=-1.0 size=N/A time=00:02:27.95 bitrate=N/A speed=2.96x    
[hls @ 0x55a5039d57c0] Opening '/config/data/transcodes/fc3db1e2d3a5a0c566fa9a705c2f64b020.ts' for writing
frame= 4102 fps= 80 q=-1.0 size=N/A time=00:02:38.35 bitrate=N/A speed=3.09x    
[hls @ 0x55a5039d57c0] Opening '/config/data/transcodes/fc3db1e2d3a5a0c566fa9a705c2f64b021.ts' for writing
frame= 4171 fps= 81 q=-1.0 size=N/A time=00:02:41.07 bitrate=N/A speed=3.11x    
frame= 4251 fps= 81 q=-1.0 size=N/A time=00:02:44.65 bitrate=N/A speed=3.15x    
frame= 4300 fps= 80 q=-1.0 size=N/A time=00:02:46.45 bitrate=N/A speed= 3.1x    
frame= 4345 fps= 80 q=-1.0 size=N/A time=00:02:48.59 bitrate=N/A speed=3.11x    
[hls @ 0x55a5039d57c0] Opening '/config/data/transcodes/fc3db1e2d3a5a0c566fa9a705c2f64b022.ts' for writing
frame= 4381 fps= 72 q=-1.0 size=N/A time=00:02:50.09 bitrate=N/A speed= 2.8x    
frame= 4511 fps= 74 q=-1.0 size=N/A time=00:02:55.50 bitrate=N/A speed=2.86x    
frame= 4532 fps= 73 q=-1.0 size=N/A time=00:02:56.21 bitrate=N/A speed=2.85x    
frame= 4551 fps= 72 q=-1.0 size=N/A time=00:02:57.33 bitrate=N/A speed=2.81x    
frame= 4563 fps= 72 q=-1.0 size=N/A time=00:02:57.58 bitrate=N/A speed=2.79x    
frame= 4575 fps= 71 q=-1.0 size=N/A time=00:02:58.25 bitrate=N/A speed=2.77x    
frame= 4590 fps= 71 q=-1.0 size=N/A time=00:02:58.93 bitrate=N/A speed=2.76x    
frame= 4603 fps= 71 q=-1.0 size=N/A time=00:02:59.09 bitrate=N/A speed=2.74x    
frame= 4621 fps= 70 q=-1.0 size=N/A time=00:02:59.85 bitrate=N/A speed=2.73x    
[hls @ 0x55a5039d57c0] Opening '/config/data/transcodes/fc3db1e2d3a5a0c566fa9a705c2f64b023.ts' for writing
frame= 4631 fps= 65 q=-1.0 size=N/A time=00:03:00.53 bitrate=N/A speed=2.54x    
frame= 4674 fps= 65 q=-1.0 size=N/A time=00:03:02.25 bitrate=N/A speed=2.55x    
frame= 4700 fps= 65 q=-1.0 size=N/A time=00:03:03.25 bitrate=N/A speed=2.54x    
frame= 4736 fps= 65 q=-1.0 size=N/A time=00:03:05.04 bitrate=N/A speed=2.55x    
frame= 4777 fps= 65 q=-1.0 size=N/A time=00:03:06.51 bitrate=N/A speed=2.55x    
frame= 4826 fps= 66 q=-1.0 size=N/A time=00:03:08.69 bitrate=N/A speed=2.56x    
frame= 4846 fps= 65 q=-1.0 size=N/A time=00:03:09.39 bitrate=N/A speed=2.55x    
frame= 4857 fps= 65 q=-1.0 size=N/A time=00:03:09.90 bitrate=N/A speed=2.54x    
frame= 4865 fps= 65 q=-1.0 size=N/A time=00:03:10.22 bitrate=N/A speed=2.53x    
[hls @ 0x55a5039d57c0] Opening '/config/data/transcodes/fc3db1e2d3a5a0c566fa9a705c2f64b024.ts' for writing
frame= 4885 fps= 62 q=-1.0 size=N/A time=00:03:10.96 bitrate=N/A speed=2.43x    
frame= 4923 fps= 62 q=-1.0 size=N/A time=00:03:12.65 bitrate=N/A speed=2.43x    
frame= 4982 fps= 63 q=-1.0 size=N/A time=00:03:15.02 bitrate=N/A speed=2.45x    
frame= 5007 fps= 62 q=-1.0 size=N/A time=00:03:16.27 bitrate=N/A speed=2.45x    
frame= 5032 fps= 62 q=-1.0 size=N/A time=00:03:17.33 bitrate=N/A speed=2.44x    
frame= 5067 fps= 62 q=-1.0 size=N/A time=00:03:18.86 bitrate=N/A speed=2.44x    
[hls @ 0x55a5039d57c0] Opening '/config/data/transcodes/fc3db1e2d3a5a0c566fa9a705c2f64b025.ts' for writing
frame= 5132 fps= 61 q=-1.0 size=N/A time=00:03:21.39 bitrate=N/A speed= 2.4x    
frame= 5208 fps= 62 q=-1.0 size=N/A time=00:03:24.75 bitrate=N/A speed=2.42x    
frame= 5271 fps= 62 q=-1.0 size=N/A time=00:03:27.18 bitrate=N/A speed=2.44x    
frame= 5303 fps= 62 q=-1.0 size=N/A time=00:03:28.56 bitrate=N/A speed=2.44x    
[hls @ 0x55a5039d57c0] Opening '/config/data/transcodes/fc3db1e2d3a5a0c566fa9a705c2f64b026.ts' for writing
frame= 5313 fps= 60 q=-1.0 size=N/A time=00:03:28.72 bitrate=N/A speed=2.37x    
frame= 5357 fps= 61 q=-1.0 size=N/A time=00:03:30.57 bitrate=N/A speed=2.38x    
[hls @ 0x55a5039d57c0] Opening '/config/data/transcodes/fc3db1e2d3a5a0c566fa9a705c2f64b027.ts' for writing
frame= 5394 fps= 60 q=-1.0 size=N/A time=00:03:32.11 bitrate=N/A speed=2.37x    
frame= 5443 fps= 60 q=-1.0 size=N/A time=00:03:34.16 bitrate=N/A speed=2.37x    
[hls @ 0x55a5039d57c0] Opening '/config/data/transcodes/fc3db1e2d3a5a0c566fa9a705c2f64b028.ts' for writing
frame= 5468 fps= 60 q=-1.0 size=N/A time=00:03:35.18 bitrate=N/A speed=2.36x    
frame= 5544 fps= 60 q=-1.0 size=N/A time=00:03:38.45 bitrate=N/A speed=2.38x    
[hls @ 0x55a5039d57c0] Opening '/config/data/transcodes/fc3db1e2d3a5a0c566fa9a705c2f64b029.ts' for writing
frame= 5572 fps= 59 q=-1.0 size=N/A time=00:03:39.53 bitrate=N/A speed=2.33x    
frame= 5579 fps= 59 q=-1.0 size=N/A time=00:03:40.01 bitrate=N/A speed=2.32x    
frame= 5583 fps= 59 q=-1.0 size=N/A time=00:03:40.11 bitrate=N/A speed=2.31x    
frame= 5589 fps= 58 q=-1.0 size=N/A time=00:03:40.62 bitrate=N/A speed=2.29x    
frame= 5626 fps= 58 q=-1.0 size=N/A time=00:03:42.13 bitrate=N/A speed=2.29x    
frame= 5666 fps= 58 q=-1.0 size=N/A time=00:03:43.53 bitrate=N/A speed=2.29x    
frame= 5680 fps= 58 q=-1.0 size=N/A time=00:03:44.01 bitrate=N/A speed=2.29x    
frame= 5693 fps= 58 q=-1.0 size=N/A time=00:03:44.78 bitrate=N/A speed=2.28x    
[hls @ 0x55a5039d57c0] Opening '/config/data/transcodes/fc3db1e2d3a5a0c566fa9a705c2f64b030.ts' for writing
frame= 5720 fps= 57 q=-1.0 size=N/A time=00:03:45.71 bitrate=N/A speed=2.25x    
frame= 5761 fps= 57 q=-1.0 size=N/A time=00:03:47.53 bitrate=N/A speed=2.25x    
frame= 5773 fps= 57 q=-1.0 size=N/A time=00:03:48.05 bitrate=N/A speed=2.24x    
frame= 5819 fps= 57 q=-1.0 size=N/A time=00:03:49.87 bitrate=N/A speed=2.25x    
frame= 5865 fps= 57 q=-1.0 size=N/A time=00:03:51.89 bitrate=N/A speed=2.25x    
frame= 5895 fps= 57 q=-1.0 size=N/A time=00:03:53.01 bitrate=N/A speed=2.25x    
[hls @ 0x55a5039d57c0] Opening '/config/data/transcodes/fc3db1e2d3a5a0c566fa9a705c2f64b031.ts' for writing
frame= 5916 fps= 56 q=-1.0 size=N/A time=00:03:53.87 bitrate=N/A speed=2.21x    
frame= 5935 fps= 56 q=-1.0 size=N/A time=00:03:54.67 bitrate=N/A speed= 2.2x    
[hls @ 0x55a5039d57c0] Opening '/config/data/transcodes/fc3db1e2d3a5a0c566fa9a705c2f64b032.ts' for writing
[hls @ 0x55a5039d57c0] Opening '/config/data/transcodes/fc3db1e2d3a5a0c566fa9a705c2f64b033.ts' for writing
[hls @ 0x55a5039d57c0] Opening '/config/data/transcodes/fc3db1e2d3a5a0c566fa9a705c2f64b034.ts' for writing
frame= 6075 fps= 57 q=-1.0 size=N/A time=00:04:00.49 bitrate=N/A speed=2.25x    
frame= 6127 fps= 57 q=-1.0 size=N/A time=00:04:02.77 bitrate=N/A speed=2.26x    
frame= 6196 fps= 57 q=-1.0 size=N/A time=00:04:05.71 bitrate=N/A speed=2.27x    
[hls @ 0x55a5039d57c0] Opening '/config/data/transcodes/fc3db1e2d3a5a0c566fa9a705c2f64b035.ts' for writing
frame= 6276 fps= 57 q=-1.0 size=N/A time=00:04:08.88 bitrate=N/A speed=2.27x    
frame= 6346 fps= 58 q=-1.0 size=N/A time=00:04:11.76 bitrate=N/A speed=2.28x    
[hls @ 0x55a5039d57c0] Opening '/config/data/transcodes/fc3db1e2d3a5a0c566fa9a705c2f64b036.ts' for writing
frame= 6374 fps= 57 q=-1.0 size=N/A time=00:04:12.97 bitrate=N/A speed=2.28x    
frame= 6445 fps= 58 q=-1.0 size=N/A time=00:04:16.21 bitrate=N/A speed= 2.3x    
frame= 6506 fps= 58 q=-1.0 size=N/A time=00:04:18.80 bitrate=N/A speed=2.31x    
[hls @ 0x55a5039d57c0] Opening '/config/data/transcodes/fc3db1e2d3a5a0c566fa9a705c2f64b037.ts' for writing
frame= 6526 fps= 57 q=-1.0 size=N/A time=00:04:19.31 bitrate=N/A speed=2.27x    
frame= 6577 fps= 57 q=-1.0 size=N/A time=00:04:21.52 bitrate=N/A speed=2.28x    
[hls @ 0x55a5039d57c0] Opening '/config/data/transcodes/fc3db1e2d3a5a0c566fa9a705c2f64b038.ts' for writing


[q] command received. Exiting.

[hls @ 0x55a5039d57c0] Opening '/config/data/transcodes/fc3db1e2d3a5a0c566fa9a705c2f64b039.ts' for writing
frame= 6614 fps= 56 q=-1.0 Lsize=N/A time=00:04:22.96 bitrate=N/A speed=2.25x    
video:440646kB audio:15083kB subtitle:0kB other streams:0kB global headers:2kB muxing overhead: unknown